#!OML:ASF H:\ColoradoDance\Project 1\Capture day 1\Session 8\male.ASF
:FULLY-SPECIFIED
:DEGREES
16
upperback 4.214810 3.250620 -4.806690
rfoot -14.387700 -0.985756
lradius 18.538700
lthumb 9.988050 41.772202
rradius 25.062201
lwrist 5.344610
rhand -7.746370 1.694180
rhumerus 69.994797 9.788680 -25.978701
lowerneck -3.333630 4.972600 7.092110
lhand -16.219900 12.029200
ltibia 64.878601
head 8.339240 1.488920 0.644793
rwrist 7.255000
lfingers 7.125020
rtoes -3.428660
lowerback 6.519220 2.876140 -0.370961
rfingers 7.125020
lclavicle 0.000000 0.000000
upperneck 24.764099 2.621590 5.236210
rfemur -16.721500 5.723150 35.653900
thorax 0.967243 1.445140 -4.949050
rclavicle 0.000000 0.000000
rtibia 36.816601
lfoot 17.249701 7.311250
lhumerus -32.008900 12.414600 59.916302
rthumb 18.152901 -27.478701
root 1.019490 18.911301 -5.332260 -186.751007 -1.804240 -172.779007
ltoes 13.466400
lfemur -76.626297 -8.048760 4.910480
17
upperback 2.485710 -9.415760 -0.078556
rfoot -15.636500 -4.721050
lradius 16.066401
lthumb 25.106400 36.910400
rradius 26.986099
lwrist -46.075199
rhand -6.730330 -4.176910
rhumerus 86.941002 2.700650 -30.489401
lowerneck -2.075210 10.944200 11.325000
lhand -0.505243 8.540970
ltibia 52.471001
head 7.523190 8.997960 -4.794930
rwrist 0.719032
lfingers 7.125020
rtoes -7.359040
lowerback 7.325790 -6.691230 -5.089000
rfingers 7.125020
lclavicle 0.000000 -0.000000
upperneck 15.859900 18.194599 -14.153800
rfemur -42.955002 7.263890 27.343599
thorax -0.691468 -4.793760 3.393610
rclavicle 0.000000 -0.000000
rtibia 52.081402
lfoot -4.838910 29.476601
lhumerus -19.968800 38.737000 62.344501
rthumb 19.130199 -33.256100
root 0.656677 18.236300 -4.092430 -174.666000 -6.844620 -176.604004
ltoes 27.318501
lfemur -2.150140 6.783240 -6.028590
18
upperback -3.217710 -14.054400 10.851500
rfoot -17.556499 -21.979200
lradius 24.301201
lthumb 18.345400 8.681280
rradius 21.329901
lwrist -6.236760
rhand -4.769480 1.164320
rhumerus 50.610298 4.349550 -23.468300
lowerneck -2.012790 -0.441615 -6.397960
lhand -7.546200 -20.473600
ltibia 25.947500
head 8.941350 -2.958130 -3.248230
rwrist 13.115700
lfingers 7.125020
rtoes -7.279370
lowerback 4.542380 -10.052600 -5.166900
rfingers 7.125020
lclavicle 0.000000 0.000000
upperneck 27.351900 -0.115691 -12.070500
rfemur -42.540798 -23.901400 3.198860
thorax -1.888460 -7.188800 15.134200
rclavicle 0.000000 0.000000
rtibia 56.059799
lfoot -11.750200 33.245602
lhumerus 71.418503 -10.770300 62.789001
rthumb 21.014900 -27.717100
root -0.131286 17.935200 -1.891140 -161.266998 -59.174599 -194.201004
ltoes 24.957300
lfemur -2.042670 -0.972310 0.599653
19
upperback -2.325720 -6.620070 9.822480
rfoot -16.829700 -13.142000
lradius 26.595100
lthumb 24.236900 19.899900
rradius 14.518300
lwrist 7.621600
rhand -14.199200 8.892120
rhumerus -10.491500 -15.469200 -29.069300
lowerneck -7.246250 -6.594840 -8.607000
lhand -1.412420 -8.588300
ltibia 44.239300
head 16.571400 -7.510910 -0.764291
rwrist 25.839399
lfingers 7.125020
rtoes -22.333799
lowerback 3.203280 -4.779010 -2.293550
rfingers 7.125020
lclavicle -0.000000 0.000000
upperneck 41.106400 -12.196100 -0.087208
rfemur -13.179200 -20.141300 -3.549270
thorax -2.791950 -3.352320 12.145600
rclavicle -0.000000 0.000000
rtibia 44.273800
lfoot -16.516899 12.518900
lhumerus 59.297401 43.923199 27.061001
rthumb 11.937000 -20.747499
root -0.952270 17.445601 0.217568 -216.994003 -83.776199 -146.705994
ltoes -20.200199
lfemur -13.379700 14.964600 9.075820
20
upperback -2.338680 -3.313120 2.286050
rfoot -20.898001 -26.324100
lradius 23.411400
lthumb 8.398380 55.972099
rradius 17.299601
lwrist 2.050850
rhand -28.762300 12.648200
rhumerus -36.123501 -17.069300 -17.253799
lowerneck -10.900300 -2.489490 -0.863637
lhand -17.867300 26.159100
ltibia 58.446098
head 14.219600 -3.171210 1.914340
rwrist 5.554030
lfingers 7.125020
rtoes -19.283501
lowerback 0.081712 -2.435040 -5.698380
rfingers 7.125020
lclavicle 0.000000 -0.000000
upperneck 35.082901 -7.949210 7.689600
rfemur -4.377950 1.797300 2.800910
thorax -2.007000 -1.540790 5.615660
rclavicle 0.000000 -0.000000
rtibia 32.004200
lfoot -22.512300 -1.752760
lhumerus 13.613800 55.859699 17.859600
rthumb -2.122190 -17.320999
root -1.538340 17.277599 2.084040 -306.352997 -77.580498 -52.835499
ltoes -22.829300
lfemur -30.250000 22.101801 7.559380
21
upperback -0.029546 -3.887420 -3.352720
rfoot 0.847929 -26.748199
lradius 18.550699
lthumb 8.699170 29.594500
rradius 22.302500
lwrist 0.800714
rhand -17.975000 -5.724900
rhumerus -30.072800 -20.231800 3.154150
lowerneck -10.303900 5.232610 6.770510
lhand -17.555599 -0.206225
ltibia 61.175499
head 9.608970 2.830190 0.884009
rwrist 0.632088
lfingers 7.125020
rtoes -30.553101
lowerback 3.674680 -2.552960 -8.156250
rfingers 7.125020
lclavicle 0.000000 -0.000000
upperneck 24.712099 4.210280 4.575390
rfemur -33.335899 -21.423800 15.329400
thorax -1.792200 -1.905450 1.281620
rclavicle 0.000000 -0.000000
rtibia 57.049801
lfoot -25.894300 -4.187220
lhumerus -1.409060 53.866100 18.621700
rthumb 8.294480 -35.542099
root -1.595770 17.704100 4.170780 -302.989014 -73.681099 -51.215698
ltoes -19.091700
lfemur -37.371201 24.790600 0.655797
22
upperback 0.620682 -3.700970 -7.340910
rfoot -30.539301 3.956950
lradius 22.422600
lthumb 13.416500 21.407801
rradius 23.192600
lwrist 8.477710
rhand -32.207298 -4.658760
rhumerus -25.772800 -27.376600 11.417000
lowerneck -5.230300 9.601870 9.098780
lhand -12.664600 -8.140140
ltibia 63.386299
head 5.688970 6.115930 -0.620029
rwrist -8.236980
lfingers 7.125020
rtoes -40.883099
lowerback 5.762830 -1.909130 -10.415800
rfingers 7.125020
lclavicle -0.000000 -0.000000
upperneck 14.133000 11.789100 0.075161
rfemur -52.972801 -28.315800 56.108898
thorax -2.457210 -1.887430 -1.549900
rclavicle -0.000000 -0.000000
rtibia 63.467201
lfoot -31.821301 3.940140
lhumerus 3.797400 51.358200 20.629200
rthumb -5.448920 -34.568699
root -1.923560 17.705000 5.262410 -281.658997 -74.956001 -72.032402
ltoes -15.997200
lfemur -34.821899 20.698799 -0.164484
